<?xml version="1.0" encoding="utf-8"?>
<!-- Generator: Adobe Illustrator 21.1.0, SVG Export Plug-In . SVG Version: 6.00 Build 0)  -->
<svg version="1.1" id="Capa_1" xmlns="http://www.w3.org/2000/svg" xmlns:xlink="http://www.w3.org/1999/xlink" x="0px" y="0px"
	 viewBox="0 0 32.2 32.2" style="enable-background:new 0 0 32.2 32.2;" xml:space="preserve">
<style type="text/css">
	.st0{fill:#111C74;}
	.st1{fill:#CB970C;}
</style>
<g>
	<path class="st0" d="M23.3,27.2c1.2,0.4,1.9,1.7,1.5,2.9c-0.4,1.2-1.7,1.9-2.9,1.5c-1.2-0.4-1.9-1.7-1.5-2.9
		C20.8,27.5,22.1,26.8,23.3,27.2"/>
	<path class="st1" d="M24.4,23.2c-2.9,2-6.7,2.7-10.4,1.7C7.5,23.3,2.8,16.9,3.1,10.1c0-0.2,0.1-0.3,0.3-0.2c0.1,0,0.3,0.2,0.3,0.3
		c-0.3,6.5,4.2,12.6,10.5,14.2s12.6-1.7,14.7-7.7c0-0.1,0.2-0.2,0.3-0.1c0.1,0.1,0.2,0.2,0.2,0.4C28.4,19.6,26.6,21.7,24.4,23.2"/>
	<path class="st0" d="M26.2,17.6c0.4-1.2,1.7-1.9,2.9-1.5c1.2,0.4,1.9,1.7,1.5,2.9c-0.4,1.2-1.7,1.9-2.9,1.5
		C26.5,20.1,25.8,18.8,26.2,17.6"/>
	<path class="st0" d="M26.9,7.2c0.8,1,2.2,1.2,3.2,0.4c1-0.8,1.2-2.2,0.4-3.2c-0.8-1-2.2-1.2-3.2-0.4C26.3,4.8,26.1,6.2,26.9,7.2"/>
	<path class="st1" d="M17.2,31.3c-0.1,0.1-0.2,0.1-0.3,0C9.9,28.6,5.8,21,7.5,13.7C9.1,6.3,16,1.2,23.6,1.8c0.2,0,0.3,0.2,0.3,0.3
		c0,0.2-0.2,0.3-0.3,0.3C16.3,1.8,9.7,6.7,8.1,13.8c-1.6,7.1,2.3,14.4,9,17c0.2,0.1,0.2,0.2,0.2,0.4C17.3,31.2,17.2,31.3,17.2,31.3"
		/>
	<path class="st0" d="M23.6,30.1C23.6,30.1,23.6,30.1,23.6,30.1c-6.9,3.1-15.1,0.5-19.2-5.9C0.3,17.8,1.6,9.2,7.3,4.3
		c0.1-0.1,0.3-0.1,0.4,0c0.1,0.1,0.1,0.3,0,0.4C2.2,9.5,1,17.7,4.9,23.8c3.9,6.2,11.8,8.6,18.4,5.7c0.2-0.1,0.3,0,0.4,0.2
		C23.8,29.8,23.7,30,23.6,30.1"/>
	<path class="st1" d="M8.5,19.2c1.2,0.4,1.9,1.7,1.5,2.9c-0.4,1.2-1.7,1.9-2.9,1.5c-1.2-0.4-1.9-1.7-1.5-2.9
		C6,19.5,7.3,18.8,8.5,19.2"/>
	<path class="st0" d="M29,6.2c-0.1,0.1-0.3,0.1-0.4-0.1c-4.7-5.5-12.9-6.6-19-2.7C3.3,7.3,0.9,15.2,3.8,21.8c0.1,0.2,0,0.3-0.2,0.4
		c-0.2,0.1-0.3,0-0.4-0.2c-3-6.9-0.5-15.1,5.9-19.2C15.6-1.2,24.1,0,29,5.7C29.1,5.9,29.1,6,29,6.2C29,6.2,29,6.2,29,6.2"/>
	<path class="st0" d="M4.2,8.3c1.2,0.4,1.9,1.7,1.5,2.9c-0.4,1.2-1.7,1.9-2.9,1.5C1.6,12.3,0.9,11,1.3,9.8C1.7,8.6,3,8,4.2,8.3"/>
</g>
</svg>
